<?xml version="1.0"?>
<svg xmlns="http://www.w3.org/2000/svg" xmlns:xlink="http://www.w3.org/1999/xlink" version="1.1" viewBox="0 0 252 252" width="2048px" height="2048px"><g fill="none" fill-rule="nonzero" stroke="none" stroke-width="1" stroke-linecap="butt" stroke-linejoin="miter" stroke-miterlimit="10" stroke-dasharray="" stroke-dashoffset="0" font-family="none" font-weight="none" font-size="none" text-anchor="none" style="mix-blend-mode: normal"><path d="M0,252v-252h252v252z" fill="none"/><path d="M126,252c-69.58788,0 -126,-56.41212 -126,-126v0c0,-69.58788 56.41212,-126 126,-126v0c69.58788,0 126,56.41212 126,126v0c0,69.58788 -56.41212,126 -126,126z" fill="#ffffff"/><g id="Layer_1"><g><g fill="#b7ff86"><g><path d="M176.55537,58.36348c0,-0.03199 0,-0.03199 0,-0.06398c-0.35191,0.4159 -0.76781,0.8318 -1.11973,1.2477c-0.92777,1.02375 -1.79156,2.14348 -2.75133,3.16723c-1.66359,1.79156 -3.55113,3.32719 -5.27871,5.05477c-1.50363,1.50363 -3.48715,3.42316 -3.71109,5.69461c-0.22395,2.17547 1.91953,4.41492 3.35918,5.7266c0.19195,0.19195 0.38391,0.35191 0.60785,0.54387c-0.22395,-0.89578 -0.28793,-1.79156 -0.09598,-2.75133c0.73582,-3.2952 2.36742,-6.5584 4.57488,-9.14977c1.6316,-1.88754 4.19098,-3.58312 5.21473,-5.88656c0.31992,-0.73582 -0.63984,-2.59137 -0.7998,-3.58312z"/></g></g><g fill="#4d90fe"><g><path d="M193.03135,83.18942c-0.09598,-1.53562 -0.22395,-3.10324 -0.28793,-4.70285c-0.89578,1.08773 -1.88754,2.11148 -2.8793,3.07125c-2.36742,2.30344 -4.86281,4.8948 -7.90207,6.27047c-6.17449,2.71934 -12.06105,-1.34367 -16.57195,-5.40668c-2.01551,-1.82355 -4.28695,-4.12699 -4.9268,-6.87832c-0.63984,-2.78332 0.22395,-5.24672 1.95152,-7.48617c1.82355,-2.36742 4.12699,-4.22297 6.23848,-6.27047c1.05574,-1.02375 1.98352,-2.14348 2.97527,-3.2632c0.31992,-0.38391 0.70383,-0.73582 1.05574,-1.11973c-4.25496,0.03199 -8.50992,-0.31992 -12.7009,0.70383c-3.93504,0.95977 -7.87008,2.62336 -10.84535,5.40668c-3.16723,2.91129 -5.3427,6.65438 -6.23848,10.87734c-1.08773,5.02277 -0.67184,10.14152 -0.63984,15.26027c0,0.60785 -0.25594,1.05574 -0.60785,1.37566c-1.34367,6.9423 -4.63887,13.30875 -9.14977,18.77941c-5.47066,6.65438 -11.54918,12.89285 -17.56371,19.03535c-3.2952,3.32719 -6.91031,6.43043 -10.01355,9.94957c-2.4634,2.75133 -4.57488,6.07852 -7.71012,8.15801c-3.42316,2.23945 -7.10227,1.91953 -10.84535,0.70383c-3.42316,-1.08773 -6.5584,-2.30344 -10.17352,-2.07949c-6.39844,0.4159 -13.56469,3.51914 -16.53996,9.56566c-1.85555,3.77508 -1.82355,8.44594 -1.66359,12.57293c0.09598,2.36742 0.44789,4.70285 0.57586,7.10227c0.06398,1.27969 0.12797,2.55937 0.25594,3.83906c2.71934,-3.83906 5.3427,-7.7741 8.82984,-10.94133c3.99902,-3.61512 9.4377,-6.43043 14.58844,-3.19922c2.94328,1.85555 5.18273,4.44691 7.32621,7.13426c2.11148,2.65535 4.73484,5.15074 6.33445,8.12602c3.71109,6.87832 -2.17547,13.43672 -5.47066,19.29129c0.67184,-0.03199 1.37566,-0.09598 2.0475,-0.15996c5.59863,-0.54387 11.61316,-1.72758 16.53996,-4.57488c2.23945,-1.27969 4.5109,-2.94328 5.63062,-5.37469c1.59961,-3.42316 0.63984,-7.58215 -0.57586,-10.97332c-1.40766,-3.87105 -3.64711,-7.93406 -3.16723,-12.18902c0.4159,-3.55113 2.52738,-6.49441 4.8948,-9.05379c6.5584,-7.13426 13.18078,-14.20453 19.48324,-21.53074c3.35918,-3.87105 6.65438,-7.80609 9.91758,-11.77312c2.68734,-3.2632 5.18273,-6.75035 8.12602,-9.78961c2.39941,-2.49539 5.15074,-4.47891 8.57391,-5.15074c3.99902,-0.7998 8.06203,0.25594 12.09305,0.12797c4.25496,-0.09598 7.80609,-1.59961 10.90934,-4.47891c2.78332,-2.55938 4.99078,-5.63063 6.36645,-9.18176c1.50363,-3.80707 2.01551,-7.71012 1.75957,-11.77313zM157.77596,106.28778c-0.09598,0.09598 -0.19195,0.22395 -0.31992,0.31992c-2.8473,2.07949 -5.18273,4.67086 -7.58215,7.23023c-2.30344,2.4634 -4.83082,4.73484 -7.19824,7.13426c-4.8948,4.99078 -9.30973,10.39746 -13.85262,15.67617c-2.30344,2.68734 -4.76684,5.21473 -6.9743,7.96605c-2.27145,2.81531 -4.38293,5.7266 -6.52641,8.63789c-1.69559,2.27145 -3.42316,4.54289 -5.24672,6.71836c-1.08773,1.27969 -3.2632,3.19922 -3.39117,4.99078c-0.09598,1.18371 -1.05574,1.53563 -1.95152,1.34367c-0.63984,0.19195 -1.40766,0.06398 -1.88754,-0.67184c-0.95977,-1.40766 -1.91953,-2.81531 -2.94328,-4.19098c-0.8318,-1.11973 -1.6316,-2.49539 -2.78332,-3.32719c-1.02375,-0.76781 -2.14348,-1.40766 -3.23121,-2.01551c-0.44789,-0.25594 -0.89578,-0.47988 -1.37566,-0.73582c-0.22395,-0.09598 -1.08773,-0.35191 -0.38391,-0.22395c-2.07949,-0.4159 -1.6316,-3.48715 0.28793,-3.48715c0,0 0,0 0.03199,0c1.53563,-0.8318 3.16723,-1.40766 4.79883,-1.98352c1.72758,-0.63984 3.03926,-1.43965 4.44691,-2.62336c2.49539,-2.14348 4.83082,-4.47891 7.3902,-6.5584c1.75957,-1.43965 3.71109,1.50363 1.98352,2.91129c-2.71934,2.20746 -5.11875,4.73484 -7.80609,6.9423c-1.34367,1.08773 -2.65535,1.88754 -4.31895,2.49539c-0.76781,0.28793 -1.53562,0.51188 -2.30344,0.7998c0.89578,0.51188 1.75957,1.05574 2.59137,1.66359c1.34367,0.99176 2.30344,2.43141 3.2952,3.77508c0.60785,0.8318 1.2157,1.6316 1.79156,2.4634c0.70383,-1.08773 1.59961,-2.07949 2.30344,-2.91129c1.82355,-2.20746 3.61512,-4.41492 5.3427,-6.68637c2.27145,-3.07125 4.47891,-6.20648 6.87832,-9.14977c2.33543,-2.8793 4.9268,-5.59863 7.3582,-8.41395c4.76684,-5.59863 9.4377,-11.32523 14.65242,-16.50797c2.52738,-2.49539 5.08676,-4.95879 7.51816,-7.55016c2.11148,-2.27145 4.31895,-4.5109 6.81434,-6.36645c-1.27969,-0.99176 -2.97527,-1.69559 -4.19098,-2.4634c-1.11973,-0.70383 -2.20746,-1.43965 -3.10324,-2.43141c-0.95977,-1.05574 -1.82355,-2.39941 -3.03926,-3.19922c-1.85555,-1.2477 -0.31992,-4.41492 1.56762,-3.16723c1.53562,1.02375 2.52738,2.39941 3.80707,3.71109c0.92777,0.95977 1.91953,1.66359 3.03926,2.33543c2.11148,1.27969 5.02277,2.55938 6.30246,4.79883c0.7998,1.40766 -0.54387,2.8793 -1.79156,2.75133z"/></g></g><g fill="#b7ff86"><g><path d="M80.25889,167.39285c-4.47891,-2.36742 -8.73387,1.08773 -11.70914,4.31895c-2.62336,2.81531 -4.79883,5.98254 -7.00629,9.11777c0.57586,0.12797 1.18371,0.28793 1.75957,0.44789c0.31992,0.06398 1.02375,0.35191 1.34367,0.22395c1.47164,-0.63984 2.68734,-2.11148 3.74309,-3.2632c1.2157,-1.31168 2.33543,-2.65535 3.64711,-3.87105c2.91129,-2.75133 6.49441,-4.9268 10.68539,-3.87105c0.63984,0.15996 1.27969,0.38391 1.88754,0.60785c-1.27969,-1.47164 -2.68734,-2.8473 -4.35094,-3.71109z"/></g></g><g fill="#b7ff86"><g><path d="M196.29455,78.87047c0.03199,0.63984 0.06398,1.31168 0.12797,1.95152c0.28793,4.19098 0.35191,8.15801 -0.7998,12.22102c-1.02375,3.64711 -2.59137,7.10227 -4.9268,10.07754c-2.39941,3.03926 -5.53465,5.95055 -9.11777,7.51816c-3.6791,1.59961 -7.61414,1.59961 -11.54918,1.34367c-3.77508,-0.25594 -7.71012,-0.7998 -11.0373,1.40766c-2.91129,1.95152 -5.05477,4.9268 -7.26223,7.61414c-6.43043,7.96605 -13.05281,15.80414 -19.86715,23.45027c-3.35918,3.77508 -6.81434,7.45418 -10.20551,11.16527c-2.36742,2.59137 -5.43867,5.15074 -6.71836,8.50992c-0.99176,2.59137 -0.35191,5.21473 0.60785,7.7741c1.59961,-5.18273 4.83082,-9.69363 8.34996,-13.82062c4.73484,-5.53465 9.4377,-11.10129 14.23652,-16.60395c3.32719,-3.80707 6.71836,-7.61414 10.04555,-11.4532c2.8793,-3.2952 5.47066,-7.00629 8.70188,-10.01355c3.32719,-3.07125 6.9743,-4.67086 11.4852,-5.05477c4.28695,-0.38391 8.76586,0.03199 12.95684,-1.18371c6.9423,-2.01551 12.02906,-7.29422 14.3325,-14.10855c2.33543,-6.9423 2.07949,-13.88461 0.63984,-20.79492z"/></g></g><g fill="#000000"><g><path d="M197.79818,70.64848c-0.19195,-0.63984 -0.63984,-0.99176 -1.11973,-1.11973c-0.76781,-0.92777 -2.75133,-0.86379 -3.19922,0.73582c-0.09598,0.35191 -0.19195,0.70383 -0.25594,1.05574c-0.22395,0.15996 -0.4159,0.38391 -0.54387,0.73582c-1.08773,2.65535 -3.03926,4.79883 -5.05477,6.84633c-2.01551,2.01551 -4.22297,4.35094 -6.81434,5.63063c-2.39941,1.18371 -4.83082,0.76781 -7.13426,-0.35191c-0.57586,-1.18371 -1.2477,-2.33543 -1.91953,-3.48715c-0.86379,-1.53562 -0.86379,-2.91129 -0.38391,-4.57488c0.8318,-2.8793 2.81531,-5.47066 4.8948,-7.58215c1.6316,-1.66359 4.03102,-3.58312 4.57488,-5.98254c0.31992,-1.34367 -0.31992,-2.78332 -0.67184,-4.06301c-0.22395,-0.76781 -0.19195,-1.56762 -0.19195,-2.36742v-0.03199v-0.25594c0,-1.40766 -1.34367,-1.82355 -2.36742,-1.40766c-0.44789,-0.54387 -1.18371,-0.8318 -1.85555,-0.54387c-0.15996,-0.03199 -0.35191,-0.06398 -0.54387,-0.03199c-2.91129,0.19195 -5.82258,0 -8.76586,0.03199c-2.59137,0.03199 -5.11875,0.38391 -7.64613,0.95977c-4.41492,1.02375 -8.63789,3.10324 -12.02906,6.1425c-3.55113,3.16723 -5.79059,7.16625 -7.10227,11.70914c-1.43965,4.99078 -1.08773,10.30148 -0.99176,15.45223c-0.12797,0.19195 -0.22395,0.44789 -0.25594,0.73582c-1.31168,8.66988 -5.82258,15.93211 -11.74113,22.20258c-6.9423,7.32621 -13.62867,14.84438 -20.85891,21.88266c-1.40766,1.37566 -2.8793,2.68734 -4.15898,4.19098c-1.31168,1.50363 -2.52738,3.07125 -3.87105,4.54289c-1.11973,1.2477 -2.39941,2.43141 -3.96703,3.10324c-1.88754,0.76781 -3.99902,0.22395 -5.88656,-0.28793c-1.85555,-0.51187 -3.64711,-1.2157 -5.50266,-1.79156c-1.6316,-0.47988 -3.32719,-0.60785 -5.02277,-0.67184c-3.32719,-0.09598 -6.75035,0.67184 -9.8216,1.88754c-5.75859,2.27145 -11.0693,7.00629 -12.44496,13.24477c-0.89578,4.03102 -0.86379,8.28598 -0.63984,12.38098c0.12797,2.20746 0.44789,4.41492 0.57586,6.65438c0.12797,2.23945 0.35191,4.44691 0.86379,6.65437c0.15996,0.63984 0.54387,0.99176 0.99176,1.11973c0.60785,0.7998 1.82355,1.11973 2.59137,0.09598c0.19195,0 0.4159,0.03199 0.60785,0.06398c0.70383,0.09598 1.40766,0.31992 2.11148,0.47988c1.15172,0.28793 2.36742,0.57586 3.51914,0.15996c2.68734,-0.92777 4.83082,-3.83906 6.68637,-5.85457c2.0475,-2.23945 4.35094,-4.8948 7.55016,-5.18273c3.71109,-0.35191 7.87008,2.91129 10.01355,5.66262c0.51187,0.63984 1.2157,0.7998 1.85555,0.63984c0.12797,0.15996 0.25594,0.31992 0.35191,0.51187c1.91953,2.78332 1.37566,5.53465 -0.03199,8.38195c-1.59961,3.2952 -3.83906,6.23848 -5.50266,9.50168c-0.73582,1.40766 0.57586,2.59137 1.79156,2.49539c0.09598,0.86379 0.70383,1.69559 1.82355,1.6316c5.50266,-0.25594 11.13328,-1.34367 16.28402,-3.2952c5.27871,-2.01551 10.62141,-5.43867 12.02906,-11.26125c0.86379,-3.61512 0,-7.51816 -1.2157,-11.00531c0.35191,-0.22395 0.63984,-0.60785 0.73582,-1.15172c1.27969,-8.31797 7.45418,-14.42848 12.73289,-20.53898c6.62238,-7.64613 13.21277,-15.32426 19.83516,-22.9384c2.8793,-3.32719 5.53465,-6.9423 8.70187,-10.01355c3.55113,-3.42316 7.93406,-3.90305 12.63691,-4.095c4.095,-0.15996 8.06203,-0.31992 11.93309,-1.69559c3.2952,-1.15172 6.20648,-3.13523 8.66988,-5.56664c4.63887,-4.54289 6.91031,-10.97332 7.87008,-17.27578c1.31168,-7.83809 -0.47988,-15.5802 -2.71934,-23.09836zM175.43564,59.54719c0.38391,-0.4159 0.76781,-0.8318 1.11973,-1.2477c0,0.03199 0,0.03199 0,0.06398c0.15996,0.99176 1.11973,2.8473 0.76781,3.58312c-1.05574,2.30344 -3.61512,3.99902 -5.21473,5.88656c-2.20746,2.55937 -3.83906,5.85457 -4.57488,9.14977c-0.22395,0.95977 -0.12797,1.88754 0.09598,2.75133c-0.19195,-0.19195 -0.4159,-0.35191 -0.60785,-0.54387c-1.43965,-1.34367 -3.58312,-3.58312 -3.35918,-5.7266c0.22395,-2.27145 2.20746,-4.15898 3.71109,-5.69461c1.72758,-1.72758 3.61512,-3.2632 5.27871,-5.05477c0.95977,-1.02375 1.82355,-2.14348 2.78332,-3.16723zM82.69029,170.4641c-4.15898,-1.08773 -7.74211,1.11973 -10.68539,3.87105c-1.27969,1.2157 -2.43141,2.55937 -3.64711,3.87105c-1.05574,1.15172 -2.27145,2.62336 -3.74309,3.2632c-0.31992,0.12797 -1.02375,-0.12797 -1.34367,-0.22395c-0.57586,-0.12797 -1.18371,-0.28793 -1.75957,-0.44789c2.20746,-3.13523 4.38293,-6.27047 7.00629,-9.11777c2.97527,-3.19922 7.23023,-6.65438 11.70914,-4.31895c1.66359,0.86379 3.07125,2.23945 4.31895,3.6791c-0.57586,-0.19195 -1.2157,-0.4159 -1.85555,-0.57586zM114.65049,188.95559c-1.11973,2.43141 -3.39117,4.095 -5.63062,5.37469c-4.9268,2.81531 -10.94133,4.03102 -16.53996,4.57488c-0.67184,0.06398 -1.37566,0.12797 -2.0475,0.15996c3.2952,-5.85457 9.18176,-12.44496 5.47066,-19.29129c-1.59961,-2.97527 -4.22297,-5.47066 -6.33445,-8.12602c-2.14348,-2.71934 -4.38293,-5.3107 -7.32621,-7.13426c-5.15074,-3.19922 -10.58941,-0.4159 -14.58844,3.19922c-3.48715,3.16723 -6.11051,7.10227 -8.82984,10.94133c-0.12797,-1.27969 -0.19195,-2.55938 -0.25594,-3.83906c-0.12797,-2.36742 -0.47988,-4.70285 -0.57586,-7.10227c-0.15996,-4.12699 -0.19195,-8.79785 1.66359,-12.57293c2.97527,-6.04652 10.10953,-9.14977 16.53996,-9.56566c3.64711,-0.22395 6.78234,0.99176 10.17352,2.07949c3.74309,1.2157 7.42219,1.53562 10.84535,-0.70383c3.13523,-2.0475 5.24672,-5.40668 7.71012,-8.15801c3.10324,-3.48715 6.71836,-6.59039 10.01355,-9.94957c6.04652,-6.1425 12.09305,-12.41297 17.56371,-19.03535c4.5109,-5.47066 7.80609,-11.80512 9.14977,-18.77941c0.35191,-0.31992 0.60785,-0.76781 0.60785,-1.37566c-0.03199,-5.11875 -0.4159,-10.2375 0.63984,-15.26027c0.89578,-4.22297 3.10324,-7.93406 6.23848,-10.87734c3.00727,-2.78332 6.9423,-4.44691 10.84535,-5.40668c4.19098,-1.02375 8.44594,-0.67184 12.7009,-0.70383c-0.38391,0.38391 -0.73582,0.73582 -1.05574,1.11973c-0.99176,1.11973 -1.88754,2.23945 -2.97527,3.2632c-2.14348,2.0475 -4.44691,3.90305 -6.23848,6.27047c-1.72758,2.23945 -2.59137,4.70285 -1.95152,7.48617c0.63984,2.75133 2.91129,5.05477 4.9268,6.87832c4.5109,4.03102 10.42945,8.12602 16.57195,5.40668c3.07125,-1.34367 5.53465,-3.96703 7.90207,-6.27047c0.99176,-0.95977 1.98352,-1.98352 2.8793,-3.07125c0.06398,1.56762 0.19195,3.13523 0.28793,4.70285c0.25594,4.06301 -0.28793,7.93406 -1.75957,11.77313c-1.37566,3.55113 -3.58312,6.62238 -6.36645,9.18176c-3.13523,2.8793 -6.68637,4.38293 -10.90934,4.47891c-4.03102,0.09598 -8.09402,-0.92777 -12.09305,-0.12797c-3.42316,0.67184 -6.17449,2.68734 -8.57391,5.15074c-2.91129,3.03926 -5.43867,6.52641 -8.12602,9.78961c-3.2632,3.96703 -6.5584,7.87008 -9.91758,11.77312c-6.33445,7.32621 -12.95684,14.39648 -19.48324,21.53074c-2.36742,2.55937 -4.47891,5.50266 -4.8948,9.05379c-0.47988,4.25496 1.75957,8.31797 3.16723,12.18902c1.2477,3.39117 2.17547,7.51816 0.57586,10.97332zM195.62271,99.69739c-2.30344,6.81434 -7.3902,12.06105 -14.3325,14.10855c-4.19098,1.2157 -8.66988,0.7998 -12.95684,1.18371c-4.54289,0.38391 -8.15801,1.98352 -11.4852,5.05477c-3.19922,2.97527 -5.82258,6.68637 -8.70188,10.01355c-3.32719,3.83906 -6.68637,7.61414 -10.04555,11.4532c-4.79883,5.50266 -9.50168,11.0693 -14.23652,16.60395c-3.51914,4.12699 -6.75035,8.63789 -8.34996,13.82062c-0.95977,-2.52738 -1.59961,-5.15074 -0.60785,-7.7741c1.27969,-3.35918 4.35094,-5.91855 6.71836,-8.50992c3.42316,-3.71109 6.84633,-7.3902 10.20551,-11.16527c6.81434,-7.64613 13.43672,-15.48422 19.86715,-23.45027c2.17547,-2.71934 4.31895,-5.66262 7.26223,-7.61414c3.32719,-2.23945 7.26223,-1.69559 11.0373,-1.40766c3.93504,0.25594 7.87008,0.25594 11.54918,-1.34367c3.58313,-1.56762 6.71836,-4.47891 9.11777,-7.51816c2.33543,-2.97527 3.90305,-6.43043 4.9268,-10.07754c1.15172,-4.06301 1.08773,-8.03004 0.7998,-12.22102c-0.03199,-0.63984 -0.09598,-1.31168 -0.12797,-1.95152c1.47164,6.87832 1.72758,13.82063 -0.63984,20.79492z"/></g></g><g fill="#000000"><g><path d="M159.53553,103.50446c-1.27969,-2.23945 -4.19098,-3.51914 -6.30246,-4.79883c-1.11973,-0.67184 -2.11148,-1.37566 -3.03926,-2.33543c-1.2477,-1.31168 -2.27145,-2.68734 -3.80707,-3.71109c-1.88754,-1.2477 -3.42316,1.91953 -1.56762,3.16723c1.2157,0.7998 2.07949,2.14348 3.03926,3.19922c0.89578,0.99176 1.98352,1.72758 3.10324,2.43141c1.2157,0.76781 2.91129,1.47164 4.19098,2.4634c-2.49539,1.88754 -4.67086,4.095 -6.81434,6.36645c-2.43141,2.59137 -4.99078,5.05477 -7.51816,7.55016c-5.24672,5.18273 -9.88559,10.90934 -14.65242,16.50797c-2.43141,2.8473 -5.02277,5.53465 -7.3582,8.41395c-2.39941,2.97527 -4.60688,6.11051 -6.87832,9.14977c-1.69559,2.30344 -3.48715,4.5109 -5.3427,6.68637c-0.70383,0.8318 -1.59961,1.82355 -2.30344,2.91129c-0.57586,-0.8318 -1.18371,-1.66359 -1.79156,-2.4634c-0.99176,-1.31168 -1.95152,-2.75133 -3.2952,-3.77508c-0.8318,-0.60785 -1.69559,-1.15172 -2.59137,-1.66359c0.76781,-0.28793 1.53562,-0.54387 2.30344,-0.7998c1.66359,-0.60785 2.94328,-1.40766 4.31895,-2.49539c2.68734,-2.20746 5.11875,-4.73484 7.80609,-6.9423c1.75957,-1.40766 -0.19195,-4.35094 -1.98352,-2.91129c-2.55937,2.07949 -4.86281,4.41492 -7.3902,6.5584c-1.40766,1.18371 -2.71934,2.01551 -4.44691,2.62336c-1.66359,0.60785 -3.2632,1.15172 -4.79883,1.98352c0,0 0,0 -0.03199,0c-1.91953,0 -2.36742,3.07125 -0.28793,3.48715c-0.67184,-0.12797 0.15996,0.09598 0.38391,0.22395c0.44789,0.22395 0.92777,0.47988 1.37566,0.73582c1.11973,0.60785 2.23945,1.2477 3.23121,2.01551c1.11973,0.8318 1.95152,2.20746 2.78332,3.32719c1.02375,1.37566 1.98352,2.78332 2.94328,4.19098c0.47988,0.73582 1.2477,0.89578 1.88754,0.67184c0.89578,0.22395 1.85555,-0.15996 1.95152,-1.34367c0.12797,-1.79156 2.30344,-3.71109 3.39117,-4.99078c1.82355,-2.17547 3.55113,-4.41492 5.24672,-6.71836c2.14348,-2.91129 4.25496,-5.82258 6.52641,-8.63789c2.20746,-2.71934 4.70285,-5.27871 6.9743,-7.96605c4.54289,-5.3107 8.95781,-10.68539 13.85262,-15.67617c2.36742,-2.43141 4.86281,-4.67086 7.19824,-7.13426c2.39941,-2.55937 4.73484,-5.15074 7.58215,-7.23023c0.12797,-0.09598 0.22395,-0.19195 0.31992,-0.31992c1.27969,0.15996 2.62336,-1.31168 1.79156,-2.75133z"/></g></g></g></g><path d="M126,252c-69.58788,0 -126,-56.41212 -126,-126v0c0,-69.58788 56.41212,-126 126,-126v0c69.58788,0 126,56.41212 126,126v0c0,69.58788 -56.41212,126 -126,126z" fill="none"/><path d="M126,246.96c-66.80436,0 -120.96,-54.15564 -120.96,-120.96v0c0,-66.80436 54.15564,-120.96 120.96,-120.96h0c66.80436,0 120.96,54.15564 120.96,120.96v0c0,66.80436 -54.15564,120.96 -120.96,120.96z" fill="none"/></g></svg>
