<?xml version="1.0" encoding="UTF-8"?>
<!DOCTYPE svg PUBLIC "-//W3C//DTD SVG 1.1//EN" "http://www.w3.org/Graphics/SVG/1.1/DTD/svg11.dtd">
<!-- Creator: CorelDRAW X6 -->
<svg xmlns="http://www.w3.org/2000/svg" xml:space="preserve" width="50in" height="50in" version="1.1" style="shape-rendering:geometricPrecision; text-rendering:geometricPrecision; image-rendering:optimizeQuality; fill-rule:evenodd; clip-rule:evenodd"
viewBox="0 0 50000 50000"
 xmlns:xlink="http://www.w3.org/1999/xlink">
 <defs>
  <style type="text/css">
   <![CDATA[
    .str0 {stroke:#373435;stroke-width:6.94488}
    .fil1 {fill:none}
    .fil0 {fill:#FEFEFE}
    .fil4 {fill:black}
    .fil2 {fill:#00DD95}
    .fil3 {fill:#4D90FE}
   ]]>
  </style>
 </defs>
 <g id="Layer_x0020_1">
  <metadata id="CorelCorpID_0Corel-Layer"/>
  <ellipse class="fil0 str0" cx="25141" cy="25184" rx="14800" ry="14267"/>
  <g id="_204865760" text-anchor="none">
   <polygon class="fil1" points="14333,35667 14333,14333 35667,14333 35667,35667 "/>
   <g id="Layer_1">
    <g>
     <g>
      <g>
       <path class="fil2" d="M31508 16092c0,-4 0,-4 0,-8 -46,54 -100,108 -146,163 -121,133 -233,279 -358,412 -217,233 -463,433 -688,658 -196,196 -454,446 -483,742 -29,283 250,575 438,746 25,25 50,46 79,71 -29,-117 -38,-233 -13,-358 96,-429 308,-854 596,-1192 213,-246 546,-467 679,-767 42,-96 -83,-337 -104,-467l0 0z"/>
      </g>
     </g>
     <g>
      <g>
       <path class="fil3" d="M33654 19325c-13,-200 -29,-404 -38,-613 -117,142 -246,275 -375,400 -308,300 -633,638 -1029,817 -804,354 -1571,-175 -2158,-704 -263,-238 -558,-538 -642,-896 -83,-363 29,-683 254,-975 238,-308 538,-550 813,-817 138,-133 258,-279 388,-425 42,-50 92,-96 138,-146 -554,4 -1108,-42 -1654,92 -513,125 -1025,342 -1413,704 -413,379 -696,867 -813,1417 -142,654 -88,1321 -83,1988 0,79 -33,138 -79,179 -175,904 -604,1733 -1192,2446 -713,867 -1504,1679 -2288,2479 -429,433 -900,838 -1304,1296 -321,358 -596,792 -1004,1063 -446,292 -925,250 -1413,92 -446,-142 -854,-300 -1325,-271 -833,54 -1767,458 -2154,1246 -242,492 -238,1100 -217,1637 13,308 58,613 75,925 8,167 17,333 33,500 354,-500 696,-1013 1150,-1425 521,-471 1229,-838 1900,-417 383,242 675,579 954,929 275,346 617,671 825,1058 483,896 -283,1750 -712,2513 88,-4 179,-13 267,-21 729,-71 1513,-225 2154,-596 292,-167 588,-383 733,-700 208,-446 83,-988 -75,-1429 -183,-504 -475,-1033 -413,-1588 54,-463 329,-846 638,-1179 854,-929 1717,-1850 2538,-2804 438,-504 867,-1017 1292,-1533 350,-425 675,-879 1058,-1275 313,-325 671,-583 1117,-671 521,-104 1050,33 1575,17 554,-13 1017,-208 1421,-583 362,-333 650,-733 829,-1196 196,-496 263,-1004 229,-1533l0 0zm-4592 3008c-13,13 -25,29 -42,42 -371,271 -675,608 -988,942 -300,321 -629,617 -938,929 -638,650 -1213,1354 -1804,2042 -300,350 -621,679 -908,1038 -296,367 -571,746 -850,1125 -221,296 -446,592 -683,875 -142,167 -425,417 -442,650 -13,154 -138,200 -254,175 -83,25 -183,8 -246,-88 -125,-183 -250,-367 -383,-546 -108,-146 -213,-325 -363,-433 -133,-100 -279,-183 -421,-263 -58,-33 -117,-63 -179,-96 -29,-13 -142,-46 -50,-29 -271,-54 -213,-454 38,-454 0,0 0,0 4,0 200,-108 413,-183 625,-258 225,-83 396,-188 579,-342 325,-279 629,-583 963,-854 229,-188 483,196 258,379 -354,288 -667,617 -1017,904 -175,142 -346,246 -563,325 -100,38 -200,67 -300,104 117,67 229,138 338,217 175,129 300,317 429,492 79,108 158,213 233,321 92,-142 208,-271 300,-379 238,-288 471,-575 696,-871 296,-400 583,-808 896,-1192 304,-375 642,-729 958,-1096 621,-729 1229,-1475 1908,-2150 329,-325 663,-646 979,-983 275,-296 563,-588 888,-829 -167,-129 -388,-221 -546,-321 -146,-92 -288,-188 -404,-317 -125,-138 -238,-313 -396,-417 -242,-163 -42,-575 204,-413 200,133 329,313 496,483 121,125 250,217 396,304 275,167 654,333 821,625 104,183 -71,375 -233,358l0 0z"/>
      </g>
     </g>
     <g>
      <g>
       <path class="fil2" d="M18967 30292c-583,-308 -1138,142 -1525,563 -342,367 -625,779 -912,1188 75,17 154,38 229,58 42,8 133,46 175,29 192,-83 350,-275 488,-425 158,-171 304,-346 475,-504 379,-358 846,-642 1392,-504 83,21 167,50 246,79 -167,-192 -350,-371 -567,-483z"/>
      </g>
     </g>
     <g>
      <g>
       <path class="fil2" d="M34079 18763c4,83 8,171 17,254 38,546 46,1063 -104,1592 -133,475 -338,925 -642,1313 -313,396 -721,775 -1188,979 -479,208 -992,208 -1504,175 -492,-33 -1004,-104 -1438,183 -379,254 -658,642 -946,992 -838,1038 -1700,2058 -2588,3054 -438,492 -888,971 -1329,1454 -308,338 -708,671 -875,1108 -129,338 -46,679 79,1013 208,-675 629,-1263 1088,-1800 617,-721 1229,-1446 1854,-2163 433,-496 875,-992 1308,-1492 375,-429 713,-913 1133,-1304 433,-400 908,-608 1496,-658 558,-50 1142,4 1688,-154 904,-263 1567,-950 1867,-1838 304,-904 271,-1808 83,-2708l0 0z"/>
      </g>
     </g>
     <g>
      <g>
       <path class="fil4" d="M34275 17692c-25,-83 -83,-129 -146,-146 -100,-121 -358,-113 -417,96 -13,46 -25,92 -33,138 -29,21 -54,50 -71,96 -142,346 -396,625 -658,892 -263,263 -550,567 -888,733 -313,154 -629,100 -929,-46 -75,-154 -163,-304 -250,-454 -113,-200 -113,-379 -50,-596 108,-375 367,-713 638,-988 213,-217 525,-467 596,-779 42,-175 -42,-363 -88,-529 -29,-100 -25,-204 -25,-308l0 -4 0 -33c0,-183 -175,-238 -308,-183 -58,-71 -154,-108 -242,-71 -21,-4 -46,-8 -71,-4 -379,25 -758,0 -1142,4 -338,4 -667,50 -996,125 -575,133 -1125,404 -1567,800 -463,413 -754,933 -925,1525 -188,650 -142,1342 -129,2013 -17,25 -29,58 -33,96 -171,1129 -758,2075 -1529,2892 -904,954 -1775,1933 -2717,2850 -183,179 -375,350 -542,546 -171,196 -329,400 -504,592 -146,163 -313,317 -517,404 -246,100 -521,29 -767,-38 -242,-67 -475,-158 -717,-233 -213,-63 -433,-79 -654,-88 -433,-13 -879,88 -1279,246 -750,296 -1442,913 -1621,1725 -117,525 -113,1079 -83,1613 17,288 58,575 75,867 17,292 46,579 113,867 21,83 71,129 129,146 79,104 238,146 338,13 25,0 54,4 79,8 92,13 183,42 275,63 150,38 308,75 458,21 350,-121 629,-500 871,-763 267,-292 567,-638 983,-675 483,-46 1025,379 1304,738 67,83 158,104 242,83 17,21 33,42 46,67 250,363 179,721 -4,1092 -208,429 -500,813 -717,1238 -96,183 75,338 233,325 13,113 92,221 238,213 717,-33 1450,-175 2121,-429 688,-263 1383,-708 1567,-1467 113,-471 0,-979 -158,-1433 46,-29 83,-79 96,-150 167,-1083 971,-1879 1658,-2675 863,-996 1721,-1996 2583,-2988 375,-433 721,-904 1133,-1304 463,-446 1033,-508 1646,-533 533,-21 1050,-42 1554,-221 429,-150 808,-408 1129,-725 604,-592 900,-1429 1025,-2250 171,-1021 -63,-2029 -354,-3008l0 0zm-2913 -1446c50,-54 100,-108 146,-163 0,4 0,4 0,8 21,129 146,371 100,467 -138,300 -471,521 -679,767 -288,333 -500,763 -596,1192 -29,125 -17,246 13,358 -25,-25 -54,-46 -79,-71 -188,-175 -467,-467 -438,-746 29,-296 288,-542 483,-742 225,-225 471,-425 688,-658 125,-133 238,-279 363,-412l0 0zm-12079 14446c-542,-142 -1008,146 -1392,504 -167,158 -317,333 -475,504 -138,150 -296,342 -488,425 -42,17 -133,-17 -175,-29 -75,-17 -154,-38 -229,-58 288,-408 571,-817 913,-1188 388,-417 942,-867 1525,-563 217,113 400,292 563,479 -75,-25 -158,-54 -242,-75l0 0zm4163 2408c-146,317 -442,533 -733,700 -642,367 -1425,525 -2154,596 -88,8 -179,17 -267,21 429,-763 1196,-1621 713,-2513 -208,-388 -550,-713 -825,-1058 -279,-354 -571,-692 -954,-929 -671,-417 -1379,-54 -1900,417 -454,413 -796,925 -1150,1425 -17,-167 -25,-333 -33,-500 -17,-308 -63,-613 -75,-925 -21,-538 -25,-1146 217,-1638 387,-788 1317,-1192 2154,-1246 475,-29 883,129 1325,271 488,158 967,200 1413,-92 408,-267 683,-704 1004,-1063 404,-454 875,-858 1304,-1296 788,-800 1575,-1617 2288,-2479 588,-713 1017,-1538 1192,-2446 46,-42 79,-100 79,-179 -4,-667 -54,-1333 83,-1987 117,-550 404,-1033 813,-1417 392,-363 904,-579 1413,-704 546,-133 1100,-88 1654,-92 -50,50 -96,96 -138,146 -129,146 -246,292 -388,425 -279,267 -579,508 -813,817 -225,292 -338,613 -254,975 83,358 379,658 642,896 588,525 1358,1058 2158,704 400,-175 721,-517 1029,-817 129,-125 258,-258 375,-400 8,204 25,408 38,613 33,529 -38,1033 -229,1533 -179,463 -467,863 -829,1196 -408,375 -871,571 -1421,583 -525,13 -1054,-121 -1575,-17 -446,88 -804,350 -1117,671 -379,396 -708,850 -1058,1275 -425,517 -854,1025 -1292,1533 -825,954 -1688,1875 -2538,2804 -308,333 -583,717 -638,1179 -63,554 229,1083 413,1588 163,442 283,979 75,1429l0 0zm10546 -11625c-300,888 -963,1571 -1867,1838 -546,158 -1129,104 -1688,154 -592,50 -1063,258 -1496,658 -417,388 -758,871 -1133,1304 -433,500 -871,992 -1308,1492 -625,717 -1238,1442 -1854,2163 -458,538 -879,1125 -1088,1800 -125,-329 -208,-671 -79,-1012 167,-438 567,-771 875,-1108 446,-483 892,-963 1329,-1454 888,-996 1750,-2017 2588,-3054 283,-354 563,-738 946,-992 433,-292 946,-221 1438,-183 513,33 1025,33 1504,-175 467,-204 875,-583 1188,-979 304,-388 508,-838 642,-1313 150,-529 142,-1046 104,-1592 -4,-83 -13,-171 -17,-254 192,896 225,1800 -83,2708l0 0z"/>
      </g>
     </g>
     <g>
      <g>
       <path class="fil4" d="M29292 21971c-167,-292 -546,-458 -821,-625 -146,-88 -275,-179 -396,-304 -163,-171 -296,-350 -496,-483 -246,-163 -446,250 -204,413 158,104 271,279 396,417 117,129 258,225 404,317 158,100 379,192 546,321 -325,246 -608,533 -888,829 -317,338 -650,658 -979,983 -683,675 -1288,1421 -1908,2150 -317,371 -654,721 -958,1096 -313,388 -600,796 -896,1192 -221,300 -454,588 -696,871 -92,108 -208,238 -300,379 -75,-108 -154,-217 -233,-321 -129,-171 -254,-358 -429,-492 -108,-79 -221,-150 -338,-217 100,-38 200,-71 300,-104 217,-79 383,-183 563,-325 350,-288 667,-617 1017,-904 229,-183 -25,-567 -258,-379 -333,271 -633,575 -963,854 -183,154 -354,263 -579,342 -217,79 -425,150 -625,258 0,0 0,0 -4,0 -250,0 -308,400 -38,454 -88,-17 21,13 50,29 58,29 121,63 179,96 146,79 292,163 421,263 146,108 254,288 363,433 133,179 258,363 383,546 63,96 163,117 246,88 117,29 242,-21 254,-175 17,-233 300,-483 442,-650 238,-283 463,-575 683,-875 279,-379 554,-758 850,-1125 288,-354 613,-688 908,-1038 592,-692 1167,-1392 1804,-2042 308,-317 633,-608 938,-929 313,-333 617,-671 988,-942 17,-13 29,-25 42,-42 167,21 342,-171 233,-358l0 0z"/>
      </g>
     </g>
    </g>
   </g>
  </g>
 </g>
</svg>
